<svg width="283" height="64" viewBox="0 0 283 64" fill="none" xmlns="http://www.w3.org/2000/svg">
<path d="M37.0597 57.2961C36.0098 58.8256 33.5215 58.8649 32.4236 57.3693L5.6058 20.8361C4.59403 19.4578 5.39657 17.6008 7.19159 17.1667L34.3366 10.6029C34.7864 10.4942 35.2596 10.4888 35.7115 10.5872L61.1637 16.1296C62.9565 16.52 63.8009 18.3405 62.8391 19.7416L37.0597 57.2961Z" fill="black"/>
<path d="M279.73 28.25L277.03 30.95H265.78V41.3H275.23V32.3H278.38V50.3C278.38 51.17 278.065 51.905 277.435 52.505C276.835 53.135 276.1 53.45 275.23 53.45H262.18L264.88 50.75H275.23V41.705L272.53 44H265.78C264.91 44 264.16 43.7 263.53 43.1C262.93 42.47 262.63 41.72 262.63 40.85V31.4C262.63 30.53 262.93 29.795 263.53 29.195C264.16 28.565 264.91 28.25 265.78 28.25H279.73Z" fill="black"/>
<path d="M255.87 44H252.72V30.95H243.27V44H240.12V28.25H243.27V30.5L245.52 28.25H252.72C253.59 28.25 254.325 28.565 254.925 29.195C255.555 29.795 255.87 30.53 255.87 31.4V44Z" fill="black"/>
<path d="M233.822 25.55H230.672V21.95H233.822V25.55ZM233.822 44H230.672V30.5L233.822 27.35V44Z" fill="black"/>
<path d="M226.168 44H219.868C218.998 44 218.248 43.6999 217.618 43.0999C217.018 42.4699 216.718 41.72 216.718 40.85V30.95H212.218L214.918 28.2499H216.718V25.1L219.868 21.95V28.2499H226.168V30.95H219.868V41.2999H226.168V44Z" fill="black"/>
<path d="M211.109 28.25L208.364 30.95H200.759V34.55H207.059C207.929 34.55 208.664 34.865 209.264 35.495C209.894 36.095 210.209 36.83 210.209 37.7V40.85C210.209 41.72 209.894 42.47 209.264 43.1C208.664 43.7 207.929 44 207.059 44H197.609V41.3H207.059V37.25H200.759C199.889 37.25 199.139 36.95 198.509 36.35C197.909 35.72 197.609 34.97 197.609 34.1V31.4C197.609 30.53 197.909 29.795 198.509 29.195C199.139 28.565 199.889 28.25 200.759 28.25H211.109Z" fill="black"/>
<path d="M191.986 25.55H188.836V21.95H191.986V25.55ZM191.986 44H188.836V30.5L191.986 27.35V44Z" fill="black"/>
<path d="M185.227 44H169.477V21.95H173.077V40.85H181.627V37.7H185.227V44Z" fill="black"/>
<path d="M162.256 44H159.106V30.95H150.556V44H147.406V30.95H138.856V44H135.706V28.25H138.856V30.5L141.106 28.25H147.406C149.236 28.25 150.271 29.015 150.511 30.545L152.806 28.25H159.106C159.976 28.25 160.711 28.565 161.311 29.195C161.941 29.795 162.256 30.53 162.256 31.4V44Z" fill="black"/>
<path d="M129.423 44H126.273V41.705L123.573 44H116.823C115.953 44 115.203 43.7 114.573 43.1C113.973 42.47 113.673 41.72 113.673 40.85V37.7C113.673 36.83 113.973 36.095 114.573 35.495C115.203 34.865 115.953 34.55 116.823 34.55H125.823L123.123 37.205H116.823V41.3H126.273V30.95H113.673L116.373 28.25H126.273C127.143 28.25 127.878 28.565 128.478 29.195C129.108 29.795 129.423 30.53 129.423 31.4V44Z" fill="black"/>
<path d="M109.414 34.55H106.264V30.95H99.9641V44H96.8141V28.25H99.9641V30.5L102.214 28.25H106.264C107.134 28.25 107.869 28.565 108.469 29.195C109.099 29.795 109.414 30.53 109.414 31.4V34.55Z" fill="black"/>
<path d="M90.725 44H87.125V41.2999L84.425 44H74.975C74.135 44 73.4 43.685 72.77 43.055C72.14 42.425 71.825 41.69 71.825 40.85V25.1C71.825 24.26 72.14 23.525 72.77 22.895C73.4 22.265 74.135 21.95 74.975 21.95H90.725V25.1H75.425V40.85H87.125V34.55H81.275L84.425 31.4H90.725V44Z" fill="black"/>
</svg>
