<svg width="180" height="180" viewBox="0 0 180 180" fill="none" xmlns="http://www.w3.org/2000/svg">
<g clip-path="url(#clip0_413_514)">
<circle cx="90" cy="90" r="90" fill="black"/>
<path d="M135.752 92.512V97.12C135.752 118.496 119.496 136.672 91.976 136.672C64.456 136.672 45 115.936 45 90.336C45 64.736 64.456 44 91.976 44C108.744 44 123.336 52.832 130.76 66.016L122.824 70.624C117.32 59.872 105.416 52.704 91.976 52.704C69.32 52.704 53.96 69.472 53.96 90.336C53.96 111.2 69.32 127.968 91.976 127.968C112.84 127.968 124.872 115.936 126.536 100.96H90.952V92.512H135.752Z" fill="white"/>
<path d="M93.5512 99.314C92.4392 101.358 89.5246 101.413 88.3365 99.4121L78.9015 83.5251C77.7267 81.5469 79.1241 79.0371 81.4244 78.9938L99.6897 78.6499C101.99 78.6065 103.481 81.062 102.381 83.083L93.5512 99.314Z" fill="white"/>
</g>
<defs>
<clipPath id="clip0_413_514">
<rect width="180" height="180" fill="white"/>
</clipPath>
</defs>
</svg>
