<svg width="180" height="180" viewBox="0 0 180 180" fill="none" xmlns="http://www.w3.org/2000/svg">
<path d="M134.872 91.376V95.984C134.872 117.36 118.616 135.536 91.096 135.536C63.576 135.536 44.12 114.8 44.12 89.2C44.12 63.6 63.576 42.864 91.096 42.864C107.864 42.864 122.456 51.696 129.88 64.88L121.944 69.488C116.44 58.736 104.536 51.568 91.096 51.568C68.44 51.568 53.08 68.336 53.08 89.2C53.08 110.064 68.44 126.832 91.096 126.832C111.96 126.832 123.992 114.8 125.656 99.824H90.072V91.376H134.872Z" fill="black"/>
<path d="M92.6711 98.178C91.5592 100.222 88.6446 100.277 87.4565 98.2762L78.0215 82.3891C76.8467 80.4109 78.2441 77.9011 80.5444 77.8578L98.8097 77.5139C101.11 77.4706 102.601 79.926 101.501 81.947L92.6711 98.178Z" fill="black"/>
</svg>
